<svg width="68" height="18" viewBox="0 0 68 18" fill="none" xmlns="http://www.w3.org/2000/svg">
<path d="M30.7901 12.0062C30.5982 12.0286 30.4612 12.1047 30.407 12.2183C30.3629 12.3094 30.3885 12.4849 30.4682 12.6525C30.4891 12.695 30.5231 12.7665 30.5448 12.811C30.5873 12.9 30.6036 12.9474 30.616 13.0169C30.6508 13.222 30.5695 13.3879 30.3892 13.4794C30.2523 13.5489 30.0813 13.5768 29.8414 13.5676C29.6185 13.5593 29.4583 13.5227 29.3151 13.4474C29.1666 13.3688 29.0961 13.2964 28.9468 13.0651C28.9104 13.009 28.8648 12.9433 28.8446 12.9192C28.7309 12.7819 28.5846 12.7195 28.378 12.7195C28.2937 12.7195 28.2503 12.7274 28.1993 12.7528C28.1211 12.7915 28.0886 12.8418 28.0963 12.9129C28.1049 12.9915 28.1505 13.0577 28.2426 13.123C28.3068 13.1683 28.3788 13.2053 28.5599 13.2848C28.8392 13.4079 28.9127 13.4653 28.9135 13.5618C28.9135 13.6333 28.8833 13.6762 28.7998 13.7203C28.7216 13.7623 28.5947 13.7926 28.4237 13.8113C28.3006 13.8242 28.1652 13.8321 27.923 13.8405C27.4664 13.8559 27.324 13.8725 27.2536 13.9191C27.232 13.9336 27.2304 13.9374 27.2304 13.9686C27.2304 14.0106 27.2474 14.0314 27.3109 14.068C27.3666 14.1004 27.4378 14.1295 27.6212 14.194C27.8092 14.2601 27.8812 14.2893 27.954 14.3288C28.0221 14.3658 28.0662 14.3999 28.0925 14.4373C28.111 14.4623 28.1126 14.4694 28.1118 14.5268C28.111 14.5817 28.1087 14.5937 28.0902 14.6258C27.995 14.7963 27.7381 14.8791 27.1762 14.9215C27.1298 14.9252 27.006 14.9327 26.9015 14.9386C26.7971 14.9444 26.6701 14.9523 26.6191 14.9556C26.2639 14.9793 26.0929 15.018 26.0217 15.0908C26.0015 15.1112 26 15.117 26 15.1569C26 15.1944 26.0023 15.2031 26.0178 15.2181C26.0549 15.2559 26.1153 15.278 26.226 15.295C26.2778 15.3029 26.3049 15.3046 26.4101 15.3042C26.5827 15.3042 26.6462 15.2946 26.9859 15.2168C27.2234 15.1619 27.3535 15.1361 27.4664 15.1199C27.6289 15.097 27.6885 15.0929 27.8572 15.0929C27.9919 15.0929 28.0213 15.0937 28.0809 15.102C28.2774 15.1286 28.4097 15.1815 28.4848 15.263C28.5312 15.3146 28.5444 15.3491 28.5444 15.4231C28.5436 15.5242 28.5119 15.602 28.4345 15.6872C28.3076 15.8274 28.1482 15.9114 27.6413 16.1057C27.2529 16.2542 27.0725 16.3511 26.9642 16.4692C26.8837 16.557 26.8512 16.6385 26.8574 16.7375C26.8597 16.7878 26.8644 16.8032 26.8814 16.8319C26.9294 16.911 27.0408 16.9667 27.1971 16.9896C27.2567 16.9983 27.389 17.0016 27.468 16.9958C27.7953 16.9721 28.0205 16.8723 28.2055 16.6689C28.2867 16.579 28.3308 16.5162 28.4755 16.28C28.6071 16.0653 28.6783 15.9622 28.751 15.8848C28.9785 15.6402 29.2618 15.5296 29.6835 15.52C29.8638 15.5159 30.0395 15.5325 30.1733 15.5666C30.4248 15.6307 30.5781 15.7467 30.6701 15.941C30.7096 16.0242 30.7336 16.1065 30.7707 16.2883C30.8156 16.5062 30.8458 16.589 30.9038 16.6522C30.9487 16.7013 31.0037 16.7308 31.0787 16.7462C31.1182 16.7541 31.1337 16.755 31.2234 16.7529C31.3031 16.7512 31.3364 16.7487 31.386 16.7404C31.55 16.7117 31.6591 16.6497 31.6878 16.5686C31.7025 16.5291 31.7025 16.51 31.6878 16.4738C31.6707 16.431 31.632 16.3935 31.5221 16.3137C31.4672 16.2737 31.4045 16.2251 31.3829 16.2059C31.273 16.1069 31.2312 15.9921 31.249 15.8403C31.2645 15.7089 31.2985 15.629 31.3743 15.5458C31.4471 15.4651 31.5376 15.4148 31.6723 15.3795C31.7767 15.352 31.8479 15.3437 32.0089 15.3412C32.3254 15.3358 32.7239 15.3616 32.987 15.4044C33.2997 15.4556 33.4769 15.5101 33.8584 15.6731C34.137 15.7921 34.3119 15.8307 34.5695 15.8307C34.6369 15.8307 34.6818 15.8287 34.7104 15.8241C34.8489 15.802 34.9449 15.7467 34.9859 15.6644C35.0052 15.6269 35.0044 15.5358 34.9851 15.4984C34.9325 15.3953 34.7878 15.3275 34.5239 15.2825C34.4094 15.263 34.2902 15.2501 33.9474 15.2193C33.4838 15.1777 33.2896 15.1511 33.1008 15.1024C32.8926 15.0492 32.7309 14.9681 32.6411 14.872C32.4848 14.704 32.4809 14.4398 32.6326 14.2635C32.6984 14.1865 32.8238 14.1071 32.9654 14.0522C33.0466 14.0206 33.247 13.9665 33.367 13.9428C33.4142 13.9336 33.5543 13.9095 33.6788 13.8887C33.9845 13.8376 34.0782 13.8168 34.1671 13.781C34.2198 13.7598 34.2484 13.7411 34.2747 13.7107C34.2941 13.6886 34.2956 13.6824 34.2948 13.6387C34.2941 13.5817 34.2809 13.551 34.2352 13.5036C34.1416 13.4071 33.9474 13.3555 33.6997 13.3609C33.5991 13.3634 33.5318 13.3754 33.4397 13.4083C33.3577 13.437 33.2153 13.516 33.0722 13.6117C32.9189 13.7136 32.8477 13.7569 32.7781 13.7893C32.6094 13.8675 32.5173 13.88 32.1985 13.8671C31.6111 13.8438 31.3093 13.7381 31.1654 13.506C31.1074 13.4133 31.0803 13.3018 31.0803 13.1604C31.0803 13.0011 31.1097 12.9333 31.2544 12.759C31.3929 12.5918 31.4308 12.504 31.4316 12.3472C31.4324 12.2815 31.4301 12.2682 31.4146 12.2378C31.379 12.1671 31.3256 12.1189 31.232 12.0719C31.112 12.012 30.9487 11.9874 30.7901 12.0062Z" fill="#F5AB59"/>
<path d="M5.072 7.808H5.768V8.856H5.072V7.808ZM6.816 10.256C7.232 10.256 7.52 9.96 7.52 9.552V7.096C7.52 6.688 7.232 6.4 6.816 6.4H3.32V12H5.072V10.256H6.816ZM10.5258 7.808V8.856H9.82981V7.808H10.5258ZM8.07781 6.4V12H9.82981V10.256H10.1818L10.6538 12H12.3658V11.304L11.8138 9.928C12.0778 9.856 12.2778 9.56 12.2778 9.296V7.096C12.2778 6.688 11.9898 6.4 11.5818 6.4H8.07781ZM15.2914 7.808V10.6H14.5954V7.808H15.2914ZM16.3394 12C16.7554 12 17.0434 11.712 17.0434 11.304V7.096C17.0434 6.688 16.7554 6.4 16.3394 6.4H13.5474C13.1314 6.4 12.8434 6.688 12.8434 7.096V11.304C12.8434 11.712 13.1314 12 13.5474 12H16.3394ZM17.9992 9.224L19.5192 10.232V10.6H17.5272V12H20.5752C20.9832 12 21.2712 11.712 21.2712 11.304V10.032C21.2712 9.584 21.1832 9.336 20.7992 9.08L19.2792 8.064V7.808H20.9992L21.2712 7.088V6.4H18.2312C17.8152 6.4 17.5272 6.688 17.5272 7.096V8.272C17.5272 8.72 17.6152 8.96 17.9992 9.224ZM22.5577 7.808V12H24.3097V7.808H25.1497L25.4297 7.096V6.4H21.5097V7.808H22.5577ZM28.2758 7.808V10.6H27.5798V7.808H28.2758ZM29.3238 12C29.7398 12 30.0278 11.712 30.0278 11.304V7.096C30.0278 6.688 29.7398 6.4 29.3238 6.4H26.5318C26.1158 6.4 25.8278 6.688 25.8278 7.096V11.304C25.8278 11.712 26.1158 12 26.5318 12H29.3238Z" fill="url(#paint0_linear_13:39)"/>
<path d="M49.58 7.26H50.46V10.75H49.58V7.26ZM51.77 12.5C52.28 12.5 52.64 12.14 52.64 11.63V6.37C52.64 5.86 52.28 5.5 51.77 5.5H47.4V12.5H51.77ZM54.8452 10.59V12.5H57.0252V10.59L58.7352 6.37V5.5H56.5552L56.0152 8.22H55.8552L55.3252 5.5H53.1352V6.37L54.8452 10.59ZM63.9159 12.5V10.75H61.4159V9.79H63.5659V8.04H61.4159V7.26H63.5659L63.9159 6.37V5.5H59.2359V12.5H63.9159Z" fill="url(#paint1_linear_13:39)"/>
<path d="M38.4 7.33333L38.9 7L38.4 6.66667L38.4 7.33333Z" fill="#551B34"/>
<path d="M34.4 13.3333L36.4 12.0667V10.6667L34.4 9.33333V13.3333Z" fill="url(#paint2_linear_13:39)"/>
<path d="M40.4 12.0667L42.4 13.3333V9.33333L40.4 10.6667V12.0667Z" fill="url(#paint3_linear_13:39)"/>
<path d="M44.4 7V6L42.4 7.33333L40.4 8.66667L38.4 10V12V16L40.4 14.6667V12.0667V10.6667L42.4 9.33333V13.3333L44.4 12V8V7Z" fill="url(#paint4_linear_13:39)"/>
<path d="M34.4 7.33333L32.4 6V7V8V12L34.4 13.3333V9.33333L36.4 10.6667V12.0667V14.6667L38.4 16V12V10L36.4 8.66667L34.4 7.33333Z" fill="url(#paint5_linear_13:39)"/>
<path d="M38.4 6.66667L38.9 7L40.4 6L38.4 4.66667L36.4 3.33333V6L37.9 7L38.4 7.33333L38.4 6.66667Z" fill="url(#paint6_linear_13:39)"/>
<path d="M32.4 6L34.4 7.33333L36.4 8.66667L38.4 10L40.4 8.66667L42.4 7.33333L44.4 6L42.4 4.66667L40.4 3.33333L38.4 2L36.4 3.33333L38.4 4.66667L40.4 6L38.9 7L38.4 7.33333L37.9 7L36.4 6L34.4 4.66667L32.4 6Z" fill="url(#paint7_linear_13:39)"/>
<defs>
<linearGradient id="paint0_linear_13:39" x1="17" y1="5" x2="17" y2="14" gradientUnits="userSpaceOnUse">
<stop stop-color="#FF018A"/>
<stop offset="1" stop-color="#F0FF40"/>
</linearGradient>
<linearGradient id="paint1_linear_13:39" x1="56" y1="2.5" x2="56" y2="14.5" gradientUnits="userSpaceOnUse">
<stop stop-color="#FF018A"/>
<stop offset="1" stop-color="#F0FF40"/>
</linearGradient>
<linearGradient id="paint2_linear_13:39" x1="35.4" y1="9.33333" x2="35.4" y2="13.3333" gradientUnits="userSpaceOnUse">
<stop stop-color="#9E3447"/>
<stop offset="1" stop-color="#1A3073"/>
</linearGradient>
<linearGradient id="paint3_linear_13:39" x1="41.4" y1="9.33333" x2="41.4" y2="13.3333" gradientUnits="userSpaceOnUse">
<stop stop-color="#9E3447"/>
<stop offset="1" stop-color="#1A3073"/>
</linearGradient>
<linearGradient id="paint4_linear_13:39" x1="41.4" y1="6" x2="41.4" y2="16" gradientUnits="userSpaceOnUse">
<stop stop-color="#4D1BDC"/>
<stop offset="1" stop-color="#093262"/>
</linearGradient>
<linearGradient id="paint5_linear_13:39" x1="35.4" y1="6" x2="35.4" y2="16" gradientUnits="userSpaceOnUse">
<stop stop-color="#BE3CA8"/>
<stop offset="1" stop-color="#96092B"/>
</linearGradient>
<linearGradient id="paint6_linear_13:39" x1="38.4" y1="3.33333" x2="38.4" y2="7.33333" gradientUnits="userSpaceOnUse">
<stop stop-color="#D80D19"/>
<stop offset="1" stop-color="#234E96"/>
</linearGradient>
<linearGradient id="paint7_linear_13:39" x1="38.4" y1="2" x2="38.4" y2="10" gradientUnits="userSpaceOnUse">
<stop stop-color="#FF3838"/>
<stop offset="1" stop-color="#4200FF"/>
</linearGradient>
</defs>
</svg>
